PathFileType	4	(X/Y/Z)	C:\Vicon\SynologyDrive\Alex P\Athlete_3\Athlete_3_22_07_06\static_01\marker_experimental.trc																																																																																																																																																																																																																									
DataRate	CameraRate	NumFrames	NumMarkers	Units	OrigDataRate	OrigDataStartFrame	OrigNumFrames																																																																																																																																																																																																																					
200	200	4	79	mm	200	519	693																																																																																																																																																																																																																					
Frame#	Time	GLAB			RFHD			LFHD			C7			T6			SPINMOL			SPINM2			SPINM3			T12			BELTOL			BELT2			BELT3			SACROL			SACR2			SACR3			LASI			RASI			LPSI			RPSI			LTHOL			LTH2			LTH3			LKNEL			LKNEM			LFIB			LSHAOL			LSHA2			LSHA3			LMALL			LMALM			LHEE			LTOE			LM5			RTHOL			RTH2			RTH3			RKNEL			RKNEM			RFIB			RSHAOL			RSHA2			RSHA3			RMALL			RMALM			RHEE			RTOE			RM5			STRN			XIPH			LACR			LUAOL			LUA2			LUA3			LCUBL			LCUBM			LLAOL			LLA2			LLA3			LWRR			LWRU			RACR			RUAOL			RUA2			RUA3			RCUBL			RCUBM			RLAOL			RLA2			RLA3			RWRR			RWRU			Bar:BL			Bar:BR		 	LKJCWK			RKJCWK			RAJCWK			LAJCWK			RHJCWK			LHJCWK
		X1	Y1	Z1	X2	Y2	Z2	X3	Y3	Z3	X4	Y4	Z4	X5	Y5	Z5	X6	Y6	Z6	X7	Y7	Z7	X8	Y8	Z8	X9	Y9	Z9	X10	Y10	Z10	X11	Y11	Z11	X12	Y12	Z12	X13	Y13	Z13	X14	Y14	Z14	X15	Y15	Z15	X16	Y16	Z16	X17	Y17	Z17	X18	Y18	Z18	X19	Y19	Z19	X20	Y20	Z20	X21	Y21	Z21	X22	Y22	Z22	X23	Y23	Z23	X24	Y24	Z24	X25	Y25	Z25	X26	Y26	Z26	X27	Y27	Z27	X28	Y28	Z28	X29	Y29	Z29	X30	Y30	Z30	X31	Y31	Z31	X32	Y32	Z32	X33	Y33	Z33	X34	Y34	Z34	X35	Y35	Z35	X36	Y36	Z36	X37	Y37	Z37	X38	Y38	Z38	X39	Y39	Z39	X40	Y40	Z40	X41	Y41	Z41	X42	Y42	Z42	X43	Y43	Z43	X44	Y44	Z44	X45	Y45	Z45	X46	Y46	Z46	X47	Y47	Z47	X48	Y48	Z48	X49	Y49	Z49	X50	Y50	Z50	X51	Y51	Z51	X52	Y52	Z52	X53	Y53	Z53	X54	Y54	Z54	X55	Y55	Z55	X56	Y56	Z56	X57	Y57	Z57	X58	Y58	Z58	X59	Y59	Z59	X60	Y60	Z60	X61	Y61	Z61	X62	Y62	Z62	X63	Y63	Z63	X64	Y64	Z64	X65	Y65	Z65	X66	Y66	Z66	X67	Y67	Z67	X68	Y68	Z68	X69	Y69	Z69	X70	Y70	Z70	X71	Y71	Z71	X72	Y72	Z72	X73	Y73	Z73	X74 	Y74 	Z74 	X75 	Y75 	Z75 	X76 	Y76 	Z76 	X77 	Y77 	Z77 	X78 	Y78 	Z78 	X79 	Y79 	Z79
																																																																																																																																																																																																																												
520	2.595	352.5283	1574.5103	-1217.5431	293.7982	1589.1099	-1140.9476	289.337	1589.2572	-1293.1263	129.2277	1448.6592	-1213.4607	76.7711	1243.2604	-1227.6432	72.7241	1211.1593	-1231.6648	68.095	1150.5189	-1179.4623	77.572	1149.3435	-1228.4261	91.0189	1108.885	-1227.2246	68.2757	1086.3247	-1226.562	69.7252	1026.7615	-1173.4125	62.2165	1024.5248	-1223.0365	72.9048	975.4148	-1248.3593	79.7778	985.0345	-1198.5601	49.4143	926.9461	-1209.8239	289.0791	942.5591	-1336.7189	292.9402	942.2786	-1109.0072	84.3797	991.4458	-1260.1677	85.0333	990.0969	-1170.9077	203.3013	737.5447	-1444.0436	154.0367	676.9611	-1427.2772	202.3483	675.551	-1441.318	193.4557	497.7259	-1427.4702	216.9398	465.9761	-1283.6481	153.2185	442.2352	-1428.4498	145.5436	326.2827	-1449.9886	102.1975	260.3415	-1444.6282	151.5712	264.3897	-1450.2251	126.2086	85.3674	-1434.111	169.4418	96.3181	-1350.4517	78.4589	38.9537	-1374.8158	289.6836	47.316	-1391.2338	238.5701	32.1043	-1492.1521	175.3725	708.2978	-1006.6274	206.6952	636.0552	-992.7465	160.9333	647.6664	-1009.8083	160.82	496.9243	-1014.0413	209.3656	461.4743	-1151.7518	116.8174	442.5344	-1015.5941	91.5157	323.3424	-998.5853	131.0809	256.1006	-983.2541	85.0627	262.2469	-1002.4814	90.0937	86.7923	-1016.8239	153.0895	97.0058	-1084.3084	58.0803	38.2785	-1077.6948	261.5898	43.1869	-1022.3007	202.3587	40.9633	-937.2033	279.6968	1368.5104	-1225.7852	318.5058	1210.7745	-1227.2163	140.3981	1413.5219	-1401.6104	129.1195	1348.3871	-1515.3369	120.4933	1298.0134	-1558.0132	154.3503	1333.8215	-1574.7714	166.8876	1296.9089	-1683.1932	189.7019	1210.8145	-1633.2834	196.5132	1265.5381	-1768.6967	202.828	1229.2278	-1823.2261	241.3818	1260.7911	-1816.5623	311.3086	1189.7552	-1861.6896	254.131	1211.6478	-1904.5653	157.3181	1403.7825	-1042.7229	168.2373	1337.3427	-909.8603	218.5672	1329.3948	-866.9201	173.4686	1317.8284	-846.3396	166.152	1291.436	-795.7602	222.3415	1197.9949	-809.1049	224.1034	1274.5645	-673.1088	274.9746	1263.2863	-633.4207	230.1301	1250.3647	-613.1204	313.1147	1183.5665	-580.2859	246.7936	1215.6395	-543.8566	1512.0804	1285.4534	-2307.3923	1540.6736	1283.4114	-83.9519	205.1977	481.851	-1355.5591	185.0928	479.1993	-1082.8966	119.8772	81.443	-1049.6933	146.2742	80.2726	-1393.274	233.3495	873.6056	-1139.4899	230.5532	873.8088	-1304.402
521	2.6	352.4937	1574.5176	-1217.5679	293.7674	1589.1195	-1140.9564	289.305	1589.262	-1293.1304	129.1994	1448.661	-1213.4646	76.7472	1243.2583	-1227.6497	72.7114	1211.1542	-1231.6724	68.0884	1150.5197	-1179.4604	77.5578	1149.3413	-1228.432	91.0117	1108.8848	-1227.2316	68.2715	1086.3248	-1226.5624	69.728	1026.7546	-1173.4238	62.2221	1024.5244	-1223.045	72.8264	975.4456	-1248.3898	79.7675	985.0269	-1198.5713	49.4005	926.9381	-1209.8269	289.0702	942.5524	-1336.7191	292.9323	942.2767	-1109.0065	84.3797	991.4484	-1260.1752	85.0211	990.0989	-1170.9099	203.3132	737.5461	-1444.0433	154.051	676.9544	-1427.276	202.352	675.5548	-1441.3235	193.4522	497.7225	-1427.4705	216.9485	465.9755	-1283.6548	153.2166	442.231	-1428.4547	145.5428	326.2768	-1449.9845	102.2005	260.3448	-1444.6357	151.5645	264.3907	-1450.2247	126.205	85.37	-1434.1141	169.4438	96.3213	-1350.4575	78.4621	38.9528	-1374.8157	289.6844	47.3219	-1391.2325	238.5795	32.1105	-1492.1487	175.3682	708.2993	-1006.6296	206.6889	636.069	-992.7378	160.9322	647.6653	-1009.8123	160.8145	496.9305	-1014.0394	209.3691	461.4755	-1151.7427	116.8117	442.5312	-1015.6026	91.4051	323.3445	-998.3271	131.0865	256.1024	-983.2562	85.0639	262.2415	-1002.4816	90.0967	86.7902	-1016.8241	153.094	97.0117	-1084.3097	58.0883	38.2801	-1077.6923	261.6059	43.2065	-1022.2548	202.3523	40.9687	-937.2102	279.6894	1368.5317	-1225.7885	318.5308	1210.8031	-1227.2224	140.3669	1413.5382	-1401.6099	129.132	1348.4067	-1515.3463	120.4875	1298.033	-1558.0215	154.3633	1333.8486	-1574.77	166.8963	1296.9313	-1683.198	189.724	1210.8307	-1633.2914	196.5279	1265.5721	-1768.709	202.8332	1229.2687	-1823.2427	241.3882	1260.8295	-1816.5757	311.3103	1189.7999	-1861.7018	254.1268	1211.6832	-1904.5682	157.2961	1403.7999	-1042.7264	168.2196	1337.3821	-909.8442	218.55	1329.426	-866.8953	173.4423	1317.8827	-846.3278	166.134	1291.4744	-795.7538	222.3192	1198.0286	-809.0859	224.1021	1274.5847	-673.0468	274.8809	1263.5015	-633.5828	230.188	1250.3019	-613.1556	313.1116	1183.6432	-580.2613	246.8018	1215.7238	-543.8377	1512.0974	1285.4713	-2307.4038	1540.6804	1283.4183	-83.9434	205.2003	481.849	-1355.5626	185.0918	479.203	-1082.891	119.8811	81.4448	-1049.6942	146.2734	80.2756	-1393.2786	233.3392	873.605	-1139.4879	230.5422	873.8047	-1304.400
522	2.605	352.4716	1574.5172	-1217.5861	293.7563	1589.1228	-1140.9703	289.2783	1589.2583	-1293.1429	129.1837	1448.6499	-1213.4545	76.7313	1243.2605	-1227.6504	72.6891	1211.1582	-1231.6832	68.0753	1150.5078	-1179.4652	77.5489	1149.3395	-1228.4323	90.9969	1108.8832	-1227.2333	68.2716	1086.3239	-1226.5668	69.7199	1026.7585	-1173.4257	62.2166	1024.524	-1223.0568	72.8236	975.4455	-1248.3754	79.7715	985.0329	-1198.5768	49.3835	926.9254	-1209.8245	289.0782	942.5501	-1336.7245	292.9271	942.2745	-1109.0013	84.3644	991.45	-1260.1785	85.0135	990.1047	-1170.9146	203.3247	737.5472	-1444.0444	154.0526	676.9608	-1427.2938	202.3671	675.5535	-1441.3334	193.459	497.7181	-1427.4731	216.9563	465.9752	-1283.656	153.2186	442.2321	-1428.4556	145.546	326.2772	-1449.9863	102.2038	260.3455	-1444.631	151.5666	264.3899	-1450.2227	126.2148	85.3691	-1434.1136	169.4508	96.3235	-1350.4576	78.4431	38.9604	-1374.823	289.6826	47.3211	-1391.2354	238.5756	32.1075	-1492.1437	175.3625	708.3025	-1006.6314	206.6851	636.0709	-992.7459	160.933	647.6672	-1009.8184	160.8081	496.9366	-1014.0411	209.3677	461.4822	-1151.7449	116.8113	442.5358	-1015.6016	91.5252	323.3507	-998.5997	131.0798	256.1041	-983.2536	85.0653	262.2474	-1002.4841	90.0986	86.7953	-1016.825	153.0896	97.0086	-1084.312	58.0818	38.2862	-1077.694	261.6065	43.2064	-1022.2524	202.351	40.9697	-937.2067	279.6876	1368.5446	-1225.7927	318.5449	1210.8258	-1227.2161	140.3596	1413.5397	-1401.6101	129.1357	1348.428	-1515.381	120.48	1298.0502	-1558.0453	154.363	1333.8641	-1574.7848	166.8967	1296.955	-1683.1978	189.7386	1210.8553	-1633.2997	196.5143	1265.6025	-1768.71	202.8328	1229.2905	-1823.2625	241.3868	1260.8582	-1816.5789	311.3185	1189.842	-1861.7151	254.1273	1211.7183	-1904.5781	157.2788	1403.8132	-1042.7262	168.1929	1337.3921	-909.8185	218.4847	1329.2966	-866.9604	173.4266	1317.9219	-846.3262	166.1197	1291.5109	-795.744	222.4457	1198.2517	-809.0423	224.0753	1274.4351	-673.2942	274.8957	1263.5864	-633.5557	230.1254	1250.4896	-613.0966	313.1104	1183.7273	-580.2446	246.8072	1215.8049	-543.8191	1512.0858	1285.4492	-2307.397	1540.6703	1283.4185	-83.9473	205.2077	481.8466	-1355.5646	185.0879	479.2094	-1082.893	119.88	81.4458	-1049.6958	146.2817	80.2762	-1393.2783	233.3348	873.6036	-1139.4913	230.5474	873.8032	-1304.404
523	2.61	352.4376	1574.5281	-1217.6135	293.741	1589.1281	-1140.9827	289.2379	1589.2592	-1293.1583	129.1647	1448.6494	-1213.4594	76.7143	1243.2638	-1227.6489	72.676	1211.1471	-1231.6823	68.0553	1150.5101	-1179.4611	77.5374	1149.3367	-1228.4312	90.9882	1108.8833	-1227.2371	68.268	1086.3206	-1226.5721	69.7124	1026.7538	-1173.4358	62.213	1024.5204	-1223.0597	72.8322	975.4557	-1248.3861	79.7604	985.04	-1198.5868	49.3893	926.9257	-1209.8276	289.0766	942.5523	-1336.7294	292.9197	942.2739	-1109.0031	84.3654	991.4471	-1260.1793	85.0181	990.0997	-1170.9203	203.3207	737.5459	-1444.0383	154.055	676.9493	-1427.2979	202.3671	675.5521	-1441.332	193.4609	497.7168	-1427.4779	217.015	465.975	-1283.4244	153.2215	442.2336	-1428.4581	145.5489	326.2737	-1449.989	102.204	260.3441	-1444.6328	151.5674	264.3927	-1450.2247	126.2094	85.3702	-1434.1128	169.4473	96.3296	-1350.4569	78.4547	38.9563	-1374.8156	289.6796	47.3237	-1391.2329	238.5754	32.1103	-1492.1477	175.3564	708.3047	-1006.6377	206.6828	636.0786	-992.7418	160.9329	647.6657	-1009.8193	160.8083	496.9377	-1014.0406	209.3716	461.4802	-1151.7449	116.8068	442.5372	-1015.6054	91.5281	323.3391	-998.6219	131.0928	256.1143	-983.2592	85.0692	262.2457	-1002.4977	90.0987	86.7985	-1016.8283	153.0928	97.0094	-1084.3149	58.0828	38.2781	-1077.6959	261.593	43.1898	-1022.3014	202.3587	40.967	-937.2095	279.667	1368.5588	-1225.786	318.559	1210.8566	-1227.2234	140.3503	1413.5455	-1401.6082	129.1093	1348.4463	-1515.3766	120.4803	1298.0585	-1558.0538	154.3755	1333.8788	-1574.7966	166.8926	1296.9705	-1683.1973	189.7449	1210.8754	-1633.3084	196.5067	1265.6047	-1768.6946	202.8353	1229.307	-1823.2709	241.3835	1260.8838	-1816.5891	311.3318	1189.886	-1861.7217	254.1304	1211.7487	-1904.5902	157.2754	1403.826	-1042.7267	168.2826	1337.4639	-909.8994	218.4769	1329.3644	-866.9474	173.4065	1317.9668	-846.3245	166.1027	1291.5566	-795.7235	222.4311	1198.299	-809.0245	223.9679	1274.5962	-673.1699	274.9412	1263.6924	-633.4978	230.1618	1250.4926	-613.1191	313.1316	1183.8125	-580.2288	246.8104	1215.8899	-543.7935	1512.0764	1285.4467	-2307.3828	1540.6782	1283.4174	-83.9527	205.238	481.8459	-1355.4512	185.09	479.2089	-1082.8928	119.8816	81.4478	-1049.699	146.2764	80.2802	-1393.2806	233.329	873.6025	-1139.497	230.5459	873.8042	-1304.4
